<?xml version="1.0" encoding="UTF-8" standalone="no"?>
<svg width="104px" height="27px" viewBox="0 0 104 27" version="1.1" xmlns="http://www.w3.org/2000/svg" xmlns:xlink="http://www.w3.org/1999/xlink">
    <!-- Generator: Sketch 3.8.2 (29753) - http://www.bohemiancoding.com/sketch -->
    <title>Sakura</title>
    <desc>Created with Sketch.</desc>
    <defs></defs>
    <g id="Website" stroke="none" stroke-width="1" fill="none" fill-rule="evenodd">
        <g id="Artboard-1" transform="translate(-40.000000, -44.000000)" fill="#FD4558">
            <path d="M49.425,46.1795538 C45.3463147,46.1795538 41.1630478,48.1585564 41.1630478,53.0719423 C41.1630478,57.1664304 43.4638446,58.8042257 45.8692231,59.93021 C48.4837649,61.1244357 51.237749,61.7044882 51.237749,63.7517323 C51.237749,65.6966142 49.4598606,66.1401837 47.9608566,66.1401837 C45.172012,66.1401837 43.4638446,64.5706299 42.8363546,64.5706299 C42.1042829,64.5706299 40.675,66.5496325 40.675,67.6073753 C40.675,68.7674803 43.5684263,70.61 48.8672311,70.61 C52.6670319,70.61 56.7457171,68.6992388 56.7457171,63.1375591 C56.7457171,58.4971391 53.2596614,57.098189 50.4010956,55.938084 C48.3791833,55.1533071 46.6710159,54.4708924 46.6710159,52.594252 C46.6710159,51.8094751 47.1939243,50.6834908 49.9130478,50.6834908 C52.2487052,50.6834908 53.3293825,51.5365092 53.7825697,51.5365092 C54.6192231,51.5365092 55.6999004,49.4892651 55.6999004,48.5680052 C55.6999004,47.442021 53.1202191,46.1795538 49.425,46.1795538 L49.425,46.1795538 Z M66.4718127,52.2189239 C62.6022908,52.2189239 59.8134462,53.4131496 59.8134462,54.5732546 C59.8134462,55.28979 60.8941235,57.3029134 61.6261952,57.3029134 C62.0445219,57.3029134 63.5435259,56.2110499 66.0883466,56.2110499 C68.0056773,56.2110499 68.8074701,56.8593438 68.8074701,58.1559318 L68.8074701,59.281916 C59.9528884,59.281916 58.80249,62.8304724 58.80249,65.6283727 C58.80249,68.426273 60.1969124,70.61 63.9618526,70.61 C67.1690239,70.61 68.8423307,68.4603937 69.0863546,68.0168241 C69.2955179,68.938084 69.365239,70.3711549 70.4807769,70.3711549 C71.3522908,70.3711549 74.3851594,70.098189 74.3851594,69.2792913 C74.3851594,68.5627559 73.9668327,67.8462205 73.9668327,64.3317848 L73.9668327,57.9170866 C73.9668327,54.6073753 71.9797809,52.2189239 66.4718127,52.2189239 L66.4718127,52.2189239 Z M68.8074701,62.5916273 L68.8074701,64.4682677 C68.2497012,65.6966142 66.9947211,66.617874 65.6700199,66.617874 C64.5196215,66.617874 63.926992,65.9695801 63.926992,65.1165617 C63.926992,63.4787664 65.4957171,62.5916273 68.8074701,62.5916273 L68.8074701,62.5916273 Z M81.7058765,44.61 L80.7297809,44.61 C79.2656375,44.61 78.6381474,44.9853281 78.6381474,45.7018635 L78.6381474,69.3134121 C78.6381474,70.0299475 79.2656375,70.4052756 80.7297809,70.4052756 L81.7058765,70.4052756 C83.1700199,70.4052756 83.79751,70.0299475 83.79751,69.3134121 L83.79751,61.9433333 L83.9369522,61.9092126 L88.7825697,69.7569816 C89.0963147,70.2687927 89.863247,70.4052756 90.8742032,70.4052756 L92.3383466,70.4052756 C93.6979084,70.4052756 94.3253984,70.2005512 94.3253984,69.8934646 C94.3253984,69.6887402 94.2208167,69.4840157 94.0465139,69.1769291 L88.364243,60.3737795 L93.2098606,53.617874 C93.4190239,53.3449081 93.5236056,53.106063 93.5236056,52.9354593 C93.5236056,52.6283727 92.8961155,52.4236483 91.5714143,52.4236483 L90.2815737,52.4236483 C89.2706175,52.4236483 88.5734064,52.4918898 88.1550797,53.0719423 L83.9369522,59.2477953 L83.79751,59.2136745 L83.79751,45.7018635 C83.79751,44.9853281 83.1700199,44.61 81.7058765,44.61 L81.7058765,44.61 Z M109.664044,52.4236483 L108.687948,52.4236483 C107.223805,52.4236483 106.596315,52.7989764 106.596315,53.5155118 L106.596315,64.4682677 C106.177988,65.2530446 105.236753,66.4472703 103.80747,66.4472703 C102.273606,66.4472703 101.715837,65.6624934 101.715837,64.3317848 L101.715837,53.5155118 C101.715837,52.7989764 101.088347,52.4236483 99.6242032,52.4236483 L98.6481076,52.4236483 C97.1839641,52.4236483 96.5564741,52.7989764 96.5564741,53.5155118 L96.5564741,65.0824409 C96.5564741,68.8698425 98.1949203,70.61 101.680976,70.61 C103.946912,70.61 105.864243,69.3134121 106.875199,68.0168241 C107.084363,68.938084 107.154084,70.3711549 108.269622,70.3711549 C109.141135,70.3711549 112.174004,70.098189 112.174004,69.2792913 C112.174004,68.5627559 111.755677,67.8462205 111.755677,64.3317848 L111.755677,53.5155118 C111.755677,52.7989764 111.128187,52.4236483 109.664044,52.4236483 L109.664044,52.4236483 Z M124.758665,52.2189239 C122.736753,52.2189239 121.690936,53.5155118 120.958865,54.8120997 C120.749701,53.9590814 120.67998,52.594252 119.564442,52.594252 C118.692928,52.594252 115.66006,52.8672178 115.66006,53.6861155 C115.66006,54.3685302 116.078386,55.0850656 116.078386,58.4971391 L116.078386,69.3134121 C116.078386,70.0299475 116.705876,70.4052756 118.17002,70.4052756 L119.146116,70.4052756 C120.610259,70.4052756 121.237749,70.0299475 121.237749,69.3134121 L121.237749,58.3606562 C121.656076,57.6782415 122.597311,56.6546194 124.026594,56.6546194 C124.723805,56.6546194 125.176992,56.9275853 125.66504,56.9275853 C126.362251,56.9275853 126.745717,54.7097375 126.745717,54.0614436 C126.745717,53.3790289 126.466833,52.2189239 124.758665,52.2189239 L124.758665,52.2189239 Z M135.809462,52.2189239 C131.93994,52.2189239 129.151096,53.4131496 129.151096,54.5732546 C129.151096,55.28979 130.231773,57.3029134 130.963845,57.3029134 C131.382171,57.3029134 132.881175,56.2110499 135.425996,56.2110499 C137.343327,56.2110499 138.14512,56.8593438 138.14512,58.1559318 L138.14512,59.281916 C129.290538,59.281916 128.140139,62.8304724 128.140139,65.6283727 C128.140139,68.426273 129.534562,70.61 133.299502,70.61 C136.506673,70.61 138.17998,68.4603937 138.424004,68.0168241 C138.633167,68.938084 138.702888,70.3711549 139.818426,70.3711549 C140.68994,70.3711549 143.722809,70.098189 143.722809,69.2792913 C143.722809,68.5627559 143.304482,67.8462205 143.304482,64.3317848 L143.304482,57.9170866 C143.304482,54.6073753 141.31743,52.2189239 135.809462,52.2189239 L135.809462,52.2189239 Z M138.14512,62.5916273 L138.14512,64.4682677 C137.587351,65.6966142 136.332371,66.617874 135.007669,66.617874 C133.857271,66.617874 133.264641,65.9695801 133.264641,65.1165617 C133.264641,63.4787664 134.833367,62.5916273 138.14512,62.5916273 L138.14512,62.5916273 Z" id="Sakura"></path>
        </g>
    </g>
</svg>